<svg width="200" height="200" viewBox="0 0 200 200" fill="none" xmlns="http://www.w3.org/2000/svg">
  <defs>
    <linearGradient id="orangeGradient" x1="0%" y1="0%" x2="100%" y2="100%">
      <stop offset="0%" style="stop-color:#ff6b35;stop-opacity:1" />
      <stop offset="100%" style="stop-color:#f7931e;stop-opacity:1" />
    </linearGradient>
  </defs>
  
  <!-- Background Circle -->
  <circle cx="100" cy="100" r="95" fill="url(#orangeGradient)" opacity="0.1"/>
  
  <!-- Map Pin Shape -->
  <path d="M100 40C77.9086 40 60 57.9086 60 80C60 102.091 100 140 100 140C100 140 140 102.091 140 80C140 57.9086 122.091 40 100 40Z" 
        fill="url(#orangeGradient)"/>
  
  <!-- Inner Circle -->
  <circle cx="100" cy="80" r="15" fill="white"/>
  
  <!-- Navigation Arrow -->
  <path d="M100 65L110 75L100 72L90 75L100 65Z" fill="url(#orangeGradient)"/>
  
  <!-- Building Elements -->
  <rect x="85" y="110" width="10" height="15" rx="2" fill="url(#orangeGradient)" opacity="0.6"/>
  <rect x="100" y="105" width="10" height="20" rx="2" fill="url(#orangeGradient)" opacity="0.8"/>
  <rect x="115" y="112" width="10" height="13" rx="2" fill="url(#orangeGradient)" opacity="0.6"/>
  
  <!-- Connection Lines -->
  <path d="M100 95L85 115M100 95L100 105M100 95L115 117" 
        stroke="url(#orangeGradient)" 
        stroke-width="2" 
        stroke-linecap="round" 
        opacity="0.4"/>
</svg>
